<?xml version="1.0" encoding="UTF-8"?>
<!DOCTYPE svg PUBLIC "-//W3C//DTD SVG 1.1//EN" "http://www.w3.org/Graphics/SVG/1.1/DTD/svg11.dtd">
<!-- Creator: CorelDRAW -->
<svg xmlns="http://www.w3.org/2000/svg" xml:space="preserve" width="100.044cm" height="27.5981cm" version="1.1" style="shape-rendering:geometricPrecision; text-rendering:geometricPrecision; image-rendering:optimizeQuality; fill-rule:evenodd; clip-rule:evenodd"
viewBox="0 0 100043.7 27598.1"
 xmlns:xlink="http://www.w3.org/1999/xlink"
 xmlns:xodm="http://www.corel.com/coreldraw/odm/2003">
 <defs>
  <style type="text/css">
   <![CDATA[
    .fil0 {fill:#6D3D18}
    .fil1 {fill:#6D3D18;fill-rule:nonzero}
   ]]>
  </style>
 </defs>
 <g id="Layer_x0020_1">
  <metadata id="CorelCorpID_0Corel-Layer"/>
  <g id="_2722215464336">
   <path class="fil0" d="M31197.92 1555.43l0 4153.65 -6449.62 0 0 9502.1c2142.7,-88.62 4038.16,-435.73 5696.66,-1048.8 1935.02,-712.49 3544.76,-1689.95 4837.56,-2938.28 1284.46,-1248.34 2251.98,-2696.87 2894.23,-4345.6 642.22,-1654.61 967.49,-3427.02 967.49,-5323.05l4128.64 0c0,2296.45 -450.41,4445.69 -1342.86,6441.85 -900.79,1996.12 -2210.27,3744.96 -3928.43,5246.5 -507.53,443.55 -1048.59,858.3 -1623.08,1244.29l8554.14 11562.84 -4862.58 0 -7103.61 -9764.53c-411.73,167.68 -835.17,325.3 -1270.42,472.74 -2064.26,706.59 -4383.45,1118.71 -6947.74,1236.47l0 8055.32 -4153.65 0 0 -24495.48 10603.27 -0.02z"/>
   <path class="fil0" d="M14145.03 26050.93l0 -4153.65 6449.62 0 0 -9502.1c-2142.69,88.62 -4038.15,435.73 -5696.65,1048.8 -1935.02,712.49 -3544.76,1689.94 -4837.56,2938.28 -1284.47,1248.33 -2251.99,2696.87 -2894.23,4345.6 -642.22,1654.61 -967.5,3427.02 -967.5,5323.05l-4128.63 0c0,-2296.45 450.4,-4445.69 1342.85,-6441.85 900.79,-1996.12 2210.27,-3744.96 3928.44,-5246.5 507.53,-443.55 1048.59,-858.3 1623.08,-1244.29l-8554.14 -11562.84 4862.57 0 7103.61 9764.53c411.74,-167.68 835.17,-325.3 1270.42,-472.74 2064.26,-706.59 4383.46,-1118.71 6947.74,-1236.47l0 -8055.32 4153.65 0 0 24495.48 -10603.27 0.02z"/>
  </g>
  <g id="_2722215464240">
   <path class="fil1" d="M46398.41 11754.65l0 -9133.21 4175.18 0c835.04,0 1554.82,134.83 2159.35,404.47 604.53,269.65 1072.07,658.9 1402.6,1167.75 330.54,508.85 495.81,1111.21 495.81,1807.07 0,687.16 -165.27,1283 -495.81,1787.5 -330.53,504.5 -798.07,893.75 -1402.6,1167.74 -604.53,274 -1324.31,411 -2159.35,411l-2739.96 0 1148.17 -1122.08 0 3509.76 -2583.39 0zm2583.39 -3235.77l-1148.17 -1187.31 2583.39 0c539.3,0 941.59,-117.43 1206.89,-352.28 265.3,-234.86 397.95,-561.04 397.95,-978.56 0,-426.22 -132.65,-756.75 -397.95,-991.61 -265.3,-234.85 -667.59,-352.28 -1206.89,-352.28l-2583.39 0 1148.17 -1187.31 0 5049.35z"/>
   <path id="_1" class="fil1" d="M62024.14 11937.31c-730.66,0 -1404.78,-117.42 -2022.36,-352.28 -617.57,-234.85 -1154.69,-567.56 -1611.35,-998.13 -456.67,-430.56 -811.12,-932.89 -1063.37,-1506.98 -252.25,-574.08 -378.38,-1204.71 -378.38,-1891.87 0,-687.17 126.13,-1317.8 378.38,-1891.88 252.25,-574.09 606.7,-1076.42 1063.37,-1506.98 456.66,-430.57 993.78,-763.28 1611.35,-998.13 617.58,-234.86 1291.7,-352.28 2022.36,-352.28 739.35,0 1415.64,117.42 2028.87,352.28 613.23,234.85 1146,567.56 1598.32,998.13 452.31,430.56 806.76,932.89 1063.36,1506.98 256.6,574.08 384.9,1204.71 384.9,1891.88 0,687.16 -128.3,1319.96 -384.9,1898.4 -256.6,578.43 -611.05,1080.76 -1063.36,1506.98 -452.32,426.21 -985.09,756.75 -1598.32,991.6 -613.23,234.86 -1289.52,352.28 -2028.87,352.28zm0 -2139.78c347.93,0 671.94,-60.88 972.03,-182.66 300.09,-121.78 561.04,-297.92 782.85,-528.42 221.8,-230.51 395.77,-506.68 521.9,-828.51 126.12,-321.84 189.18,-678.47 189.18,-1069.89 0,-400.13 -63.06,-758.93 -189.18,-1076.42 -126.13,-317.49 -300.1,-591.48 -521.9,-821.99 -221.81,-230.5 -482.76,-406.64 -782.85,-528.42 -300.09,-121.77 -624.1,-182.66 -972.03,-182.66 -347.93,0 -671.95,60.89 -972.04,182.66 -300.09,121.78 -561.04,297.92 -782.84,528.42 -221.81,230.51 -395.78,504.5 -521.9,821.99 -126.13,317.49 -189.19,676.29 -189.19,1076.42 0,391.42 63.06,748.05 189.19,1069.89 126.12,321.83 300.09,598 521.9,828.51 221.8,230.5 482.75,406.64 782.84,528.42 300.09,121.78 624.11,182.66 972.04,182.66z"/>
   <path id="_2" class="fil1" d="M71661.09 11937.31c-669.77,0 -1276.48,-115.25 -1820.12,-345.75 -543.64,-230.51 -993.78,-563.22 -1350.41,-998.13l1409.12 -1670.07c243.56,313.13 495.81,550.16 756.76,711.08 260.95,160.92 534.94,241.38 821.99,241.38 765.44,0 1148.17,-443.61 1148.17,-1330.84l0 -3927.28 -3157.48 0 0 -1996.26 5714.78 0 0 5766.97c0,1191.67 -300.09,2081.07 -900.28,2668.2 -600.18,587.14 -1474.36,880.7 -2622.53,880.7z"/>
   <path id="_3" class="fil1" d="M82942.02 11937.31c-730.66,0 -1404.78,-117.42 -2022.36,-352.28 -617.57,-234.85 -1154.69,-567.56 -1611.35,-998.13 -456.67,-430.56 -811.12,-932.89 -1063.37,-1506.98 -252.25,-574.08 -378.38,-1204.71 -378.38,-1891.87 0,-687.17 126.13,-1317.8 378.38,-1891.88 252.25,-574.09 606.7,-1076.42 1063.37,-1506.98 456.66,-430.57 993.78,-763.28 1611.35,-998.13 617.58,-234.86 1291.7,-352.28 2022.36,-352.28 739.35,0 1415.64,117.42 2028.87,352.28 613.23,234.85 1146,567.56 1598.32,998.13 452.31,430.56 806.76,932.89 1063.36,1506.98 256.6,574.08 384.9,1204.71 384.9,1891.88 0,687.16 -128.3,1319.96 -384.9,1898.4 -256.6,578.43 -611.05,1080.76 -1063.36,1506.98 -452.32,426.21 -985.09,756.75 -1598.32,991.6 -613.23,234.86 -1289.52,352.28 -2028.87,352.28zm0 -2139.78c347.93,0 671.94,-60.88 972.03,-182.66 300.09,-121.78 561.04,-297.92 782.85,-528.42 221.8,-230.51 395.77,-506.68 521.9,-828.51 126.12,-321.84 189.18,-678.47 189.18,-1069.89 0,-400.13 -63.06,-758.93 -189.18,-1076.42 -126.13,-317.49 -300.1,-591.48 -521.9,-821.99 -221.81,-230.5 -482.76,-406.64 -782.85,-528.42 -300.09,-121.77 -624.1,-182.66 -972.03,-182.66 -347.93,0 -671.95,60.89 -972.04,182.66 -300.09,121.78 -561.04,297.92 -782.84,528.42 -221.81,230.51 -395.78,504.5 -521.9,821.99 -126.13,317.49 -189.19,676.29 -189.19,1076.42 0,391.42 63.06,748.05 189.19,1069.89 126.12,321.83 300.09,598 521.9,828.51 221.8,230.5 482.75,406.64 782.84,528.42 300.09,121.78 624.11,182.66 972.04,182.66z"/>
   <path id="_4" class="fil1" d="M93087.82 9732.3l-143.52 -2896.54 3927.28 -4214.32 2844.34 0 -3914.23 4240.42 -1435.22 1500.46 -1278.65 1369.98zm-2309.4 2022.35l0 -9133.21 2557.3 0 0 9133.21 -2557.3 0zm6132.3 0l-2974.82 -3770.71 1683.12 -1800.55 4292.61 5571.26 -3000.91 0z"/>
   <path class="fil1" d="M51424.93 25167.59c-721.96,0 -1389.55,-115.25 -2002.78,-345.75 -613.23,-230.51 -1143.83,-558.87 -1591.79,-985.08 -447.96,-426.22 -798.07,-928.55 -1050.32,-1506.98 -252.25,-578.44 -378.38,-1215.59 -378.38,-1911.45 0,-695.87 126.13,-1333.02 378.38,-1911.45 252.25,-578.44 602.36,-1080.77 1050.32,-1506.98 447.96,-426.22 978.56,-754.58 1591.79,-985.09 613.23,-230.5 1280.82,-345.75 2002.78,-345.75 843.73,0 1598.31,147.87 2263.73,443.61 665.42,295.74 1219.93,721.96 1663.55,1278.65l-1643.98 1487.41c-295.74,-347.93 -619.75,-613.23 -972.03,-795.9 -352.29,-182.66 -745.88,-273.99 -1180.8,-273.99 -374.02,0 -717.61,60.89 -1030.75,182.66 -313.13,121.78 -580.61,297.92 -802.41,528.42 -221.81,230.51 -395.78,506.68 -521.9,828.52 -126.13,321.83 -189.19,678.46 -189.19,1069.89 0,391.42 63.06,748.05 189.19,1069.89 126.12,321.83 300.09,598 521.9,828.51 221.8,230.5 489.28,406.64 802.41,528.42 313.14,121.78 656.73,182.66 1030.75,182.66 434.92,0 828.51,-91.33 1180.8,-273.99 352.28,-182.67 676.29,-447.96 972.03,-795.9l1643.98 1487.41c-443.62,547.99 -998.13,972.04 -1663.55,1272.13 -665.42,300.09 -1420,450.13 -2263.73,450.13z"/>
   <path id="_1_0" class="fil1" d="M60636.42 25167.59c-730.66,0 -1404.78,-117.42 -2022.36,-352.28 -617.57,-234.85 -1154.69,-567.56 -1611.35,-998.13 -456.67,-430.56 -811.12,-932.89 -1063.37,-1506.98 -252.25,-574.08 -378.38,-1204.71 -378.38,-1891.87 0,-687.17 126.13,-1317.8 378.38,-1891.88 252.25,-574.09 606.7,-1076.42 1063.37,-1506.98 456.66,-430.57 993.78,-763.28 1611.35,-998.13 617.58,-234.86 1291.7,-352.28 2022.36,-352.28 739.35,0 1415.64,117.42 2028.87,352.28 613.23,234.85 1146,567.56 1598.32,998.13 452.31,430.56 806.76,932.89 1063.36,1506.98 256.6,574.08 384.9,1204.71 384.9,1891.88 0,687.16 -128.3,1319.96 -384.9,1898.4 -256.6,578.43 -611.05,1080.76 -1063.36,1506.98 -452.32,426.21 -985.09,756.75 -1598.32,991.6 -613.23,234.86 -1289.52,352.28 -2028.87,352.28zm0 -2139.78c347.93,0 671.94,-60.88 972.03,-182.66 300.09,-121.78 561.04,-297.92 782.85,-528.42 221.8,-230.51 395.77,-506.68 521.9,-828.51 126.12,-321.84 189.18,-678.47 189.18,-1069.89 0,-400.13 -63.06,-758.93 -189.18,-1076.42 -126.13,-317.49 -300.1,-591.48 -521.9,-821.99 -221.81,-230.5 -482.76,-406.64 -782.85,-528.42 -300.09,-121.77 -624.1,-182.66 -972.03,-182.66 -347.93,0 -671.95,60.89 -972.04,182.66 -300.09,121.78 -561.04,297.92 -782.84,528.42 -221.81,230.51 -395.78,504.5 -521.9,821.99 -126.13,317.49 -189.19,676.29 -189.19,1076.42 0,391.42 63.06,748.05 189.19,1069.89 126.12,321.83 300.09,598 521.9,828.51 221.8,230.5 482.75,406.64 782.84,528.42 300.09,121.78 624.11,182.66 972.04,182.66z"/>
   <path id="_2_1" class="fil1" d="M67068.8 24984.93l0 -9133.21 7163.05 0 0 1996.26 -4579.66 0 0 7136.95 -2583.39 0zm2400.73 -3131.39l0 -1996.25 4214.32 0 0 1996.25 -4214.32 0z"/>
   <path id="_3_2" class="fil1" d="M75445.26 24984.93l0 -9133.21 7163.05 0 0 1996.26 -4579.66 0 0 7136.95 -2583.39 0zm2400.73 -3131.39l0 -1996.25 4214.32 0 0 1996.25 -4214.32 0z"/>
   <path id="_4_3" class="fil1" d="M83821.72 24984.93l0 -9133.21 7163.05 0 0 1996.26 -4605.75 0 0 5140.69 4775.36 0 0 1996.26 -7332.66 0zm2374.63 -3666.33l0 -1931.02 4240.42 0 0 1931.02 -4240.42 0z"/>
   <path id="_5" class="fil1" d="M92589.6 24984.93l0 -9133.21 7163.05 0 0 1996.26 -4605.75 0 0 5140.69 4775.36 0 0 1996.26 -7332.66 0zm2374.63 -3666.33l0 -1931.02 4240.42 0 0 1931.02 -4240.42 0z"/>
  </g>
 </g>
</svg>
